# xmcd
#
# Track frame offsets: 
#        150
#        834
#        23918
#        40735
#        65152
#        89302
#        91852
#        106376
#        109726
#        128276
#        130960
#        140177
#        143127
#        181677
#
# Disc length: 2745 seconds
#
# Revision: 0
# Processed by: cddbd v1.5.2PL0 Copyright (c) Steve Scherf et al.
# Submitted via: ExactAudioCopy v1.0b3
#
DISCID=b10ab70e
DTITLE=Kalle Sändare - Boxen e' klar - CD 21 - Nu är det åter jul...
DYEAR=2014
DGENRE=Comedy
TTITLE0=Nu är det åter jul
TTITLE1=Mor gundas rulader
TTITLE2=Hundspannstur
TTITLE3=Arg tomte
TTITLE4=Julgransplundring
TTITLE5=Kråka
TTITLE6=Takskottning (omkoppling sker)
TTITLE7=Dikt (före våren)
TTITLE8=Tomterädsla
TTITLE9=Holger och Lisa
TTITLE10=Julmarknad
TTITLE11=Dikt (aftonspjutet)
TTITLE12=Krut (vad du piper)
TTITLE13=Metronom köpes
EXTD=
EXTT0=
EXTT1=
EXTT2=
EXTT3=
EXTT4=
EXTT5=
EXTT6=
EXTT7=
EXTT8=
EXTT9=
EXTT10=
EXTT11=
EXTT12=
EXTT13=
PLAYORDER=
